:SAMPLES-PER-SECOND 30
:FULLY-SPECIFIED
:DEGREES
494
root  92.5517 32.897 -76.5419 1.07251 63.4999 2.09241
RightUpLeg  -3.44337 5.69377 12.4039
RightLeg  23.8565 -6.31367 -2.31599
RightFoot  -11.6774 0.0909008 1.26654
RightToes  3.50206 0.00769675 0.033382
Spine  8.1574 -5.9814 -3.54166
Spine1  14.9442 -14.8005 -2.74359
HEad  -8.46434 -17.8136 27.4946
LeftShoulder1  0 -2.42657e-020 -4.95415e-022
LeftArm  -46.2088 -54.1995 -68.0569
LeftForeArm  -19.4478 -26.5542 -4.99595
LeftHand  0.373005 -2.19037 -19.758
RightShoulder  0 2.42657e-020 1.07489e-018
RightArm  -10.6695 4.40638 90.5247
RightForeArm  35.6224 46.5252 10.7329
RightHand  -0.0284309 23.9504 0.236029
LeftUpLeg  -32.9109 3.59851 7.15487
LeftLeg  73.5522 0.717495 1.93779
LeftFoot  1.88484 0.0191361 -1.16327
LeftToes  -6.41736 8.63562e-007 1.17448e-007
495
root  93.933 32.8857 -76.3822 1.06543 57.6427 1.74641
RightUpLeg  -1.12765 8.68034 11.682
RightLeg  23.6298 -4.18405 -1.51957
RightFoot  -12.5253 0.0593132 0.918077
RightToes  1.60458 0.00377975 0.0152364
Spine  8.41323 -6.35381 -3.7771
Spine1  15.3039 -15.6246 -2.78957
HEad  -11.2013 -20.4896 31.5398
LeftShoulder1  0 -2.42657e-020 -4.95415e-022
LeftArm  -58.7663 -53.697 -57.5412
LeftForeArm  -24.1423 -24.8346 -4.61034
LeftHand  0.452919 -2.63817 -19.9012
RightShoulder  0 2.42657e-020 1.07489e-018
RightArm  -9.69737 4.81513 90.8291
RightForeArm  35.2662 45.7956 10.4585
RightHand  -0.119781 23.6001 -0.203392
LeftUpLeg  -33.3297 3.8347 9.76648
LeftLeg  61.3791 -0.869816 -1.38654
LeftFoot  -0.0799189 -0.000725281 -1.03987
LeftToes  -10.4293 8.63562e-007 1.17448e-007
496
root  95.2966 32.8066 -76.218 0.998413 51.9211 1.10954
RightUpLeg  0.112617 11.6106 10.8698
RightLeg  24.7362 -1.84123 -0.712627
RightFoot  -13.2089 0.00585363 0.428129
RightToes  -2.80268 -0.00761991 -0.0263378
Spine  8.71816 -6.59211 -3.95853
Spine1  15.6634 -16.0871 -2.75418
HEad  -13.7557 -23.4728 35.7201
LeftShoulder1  0 -2.42657e-020 -4.95415e-022
LeftArm  -65.3957 -49.8806 -47.0534
LeftForeArm  -30.5695 -24.5672 -4.53535
LeftHand  0.510857 -3.19662 -18.5646
RightShoulder  0 2.42657e-020 1.07489e-018
RightArm  -9.63564 5.46695 90.4928
RightForeArm  34.1178 43.7586 9.73032
RightHand  -0.127003 23.1492 -0.250157
LeftUpLeg  -31.744 4.71155 12.4332
LeftLeg  45.6539 -2.25886 -2.03696
LeftFoot  -1.12515 -0.00699329 -0.712208
LeftToes  -14.0477 8.63562e-007 1.17448e-007
497
root  96.5014 32.5898 -76.0902 1.52917 47.6796 -0.901276
RightUpLeg  -0.974402 14.783 10.9157
RightLeg  26.5736 -1.12518 -0.480585
RightFoot  -14.5022 -0.00875324 0.308768
RightToes  -4.98301 -0.0144332 -0.0465508
Spine  8.15776 -6.96598 -3.45574
Spine1  14.368 -16.5098 -2.21133
HEad  -15.5384 -25.8557 39.7046
LeftShoulder1  0 -2.42657e-020 -4.95415e-022
LeftArm  -69.3955 -44.8905 -40.6396
LeftForeArm  -38.5331 -23.8883 -4.36737
LeftHand  0.501487 -3.08382 -18.8806
RightShoulder  0 2.42657e-020 1.07489e-018
RightArm  -10.6621 5.06316 89.1187
RightForeArm  34.0032 41.795 9.07482
RightHand  -0.325345 22.9293 -1.23441
LeftUpLeg  -31.8742 7.98984 14.9023
LeftLeg  30.4905 -4.39216 -2.21997
LeftFoot  -3.31595 -0.00476195 -0.164525
LeftToes  -11.6141 8.63562e-007 1.17448e-007
498
root  97.8108 32.3302 -75.7917 1.32581 43.4788 -3.06668
RightUpLeg  -1.06577 19.3298 11.9235
RightLeg  28.7869 -1.98174 -0.9356
RightFoot  -15.4359 0.0279066 0.583491
RightToes  -8.09775 -0.025489 -0.0749443
Spine  7.79796 -6.91963 -2.85935
Spine1  13.4524 -16.2203 -1.18398
HEad  -17.0321 -28.8043 43.7805
LeftShoulder1  0 -2.42657e-020 -4.95415e-022
LeftArm  -69.2877 -39.4282 -37.7399
LeftForeArm  -46.5121 -23.3279 -4.22377
LeftHand  0.639865 -3.53579 -20.9194
RightShoulder  0 2.42657e-020 1.07489e-018
RightArm  -13.7433 3.53931 86.9221
RightForeArm  34.4148 40.557 8.68221
RightHand  -0.490033 22.6643 -2.07545
LeftUpLeg  -33.7029 25.6244 10.6945
LeftLeg  20.8625 -18.7633 -5.68179
LeftFoot  -8.91055 0.224223 2.87712
LeftToes  -6.5488 8.63562e-007 1.17448e-007
